<svg width="193" height="46" viewBox="0 0 193 46" fill="none" xmlns="http://www.w3.org/2000/svg">
<path d="M22.9997 0C35.7026 0 45.9997 10.2971 45.9997 23V39.1C45.9997 40.93 45.2728 42.685 43.9788 43.979C42.6848 45.273 40.9297 46 39.0997 46H24.1497V35.9099C24.1497 33.6076 24.29 31.2225 25.4975 29.2629C26.362 27.8586 27.5185 26.6566 28.8884 25.7385C30.2583 24.8204 31.8096 24.2077 33.4371 23.9419L33.8776 23.8706C34.0592 23.8085 34.2168 23.6912 34.3284 23.5351C34.44 23.379 34.5 23.1919 34.5 23C34.5 22.8081 34.44 22.621 34.3284 22.4649C34.2168 22.3088 34.0592 22.1915 33.8776 22.1294L33.4371 22.0581C31.0591 21.6697 28.8632 20.5441 27.1594 18.8403C25.4556 17.1365 24.3301 14.9406 23.9416 12.5626L23.8703 12.1222C23.8082 11.9406 23.6909 11.7829 23.5348 11.6713C23.3787 11.5597 23.1916 11.4997 22.9997 11.4997C22.8078 11.4997 22.6208 11.5597 22.4647 11.6713C22.3086 11.7829 22.1913 11.9406 22.1292 12.1222L22.0579 12.5626C21.7922 14.1902 21.1795 15.7415 20.2614 17.1114C19.3433 18.4814 18.1412 19.6378 16.7368 20.5022C14.7772 21.7097 12.3921 21.85 10.0898 21.85H0.0273438C0.628794 9.68185 10.6832 0 22.9997 0Z" fill="#5F6FFF"/>
<path d="M0 24.15H10.0901C12.3924 24.15 14.7775 24.2903 16.7371 25.4978C18.2689 26.4417 19.5583 27.7311 20.5022 29.2629C21.7097 31.2225 21.85 33.6076 21.85 35.9099V46H6.9C5.07001 46 3.31496 45.273 2.02096 43.979C0.726962 42.685 0 40.93 0 39.1L0 24.15ZM46 2.3C46 2.91 45.7577 3.49501 45.3263 3.92635C44.895 4.35768 44.31 4.6 43.7 4.6C43.09 4.6 42.505 4.35768 42.0737 3.92635C41.6423 3.49501 41.4 2.91 41.4 2.3C41.4 1.69 41.6423 1.10499 42.0737 0.673654C42.505 0.242321 43.09 0 43.7 0C44.31 0 44.895 0.242321 45.3263 0.673654C45.7577 1.10499 46 1.69 46 2.3Z" fill="#5F6FFF"/>
<path d="M59.448 37V13.098H62.678L64.072 17.722V37H59.448ZM75.972 37L61.794 18.64L62.678 13.098L76.856 31.458L75.972 37ZM75.972 37L74.646 32.512V13.098H79.304V37H75.972ZM91.5291 37.34C89.8065 37.34 88.2765 36.9773 86.9391 36.252C85.6018 35.504 84.5365 34.484 83.7431 33.192C82.9725 31.9 82.5871 30.4267 82.5871 28.772C82.5871 27.14 82.9611 25.6893 83.7091 24.42C84.4798 23.128 85.5225 22.108 86.8371 21.36C88.1518 20.5893 89.6138 20.204 91.2231 20.204C92.8098 20.204 94.2038 20.5667 95.4051 21.292C96.6291 21.9947 97.5811 22.9693 98.2611 24.216C98.9638 25.44 99.3151 26.834 99.3151 28.398C99.3151 28.6927 99.2925 28.9987 99.2471 29.316C99.2245 29.6107 99.1678 29.9507 99.0771 30.336L85.2731 30.37V27.038L97.0031 27.004L95.2011 28.398C95.1558 27.4233 94.9745 26.6073 94.6571 25.95C94.3625 25.2927 93.9205 24.794 93.3311 24.454C92.7645 24.0913 92.0618 23.91 91.2231 23.91C90.3391 23.91 89.5685 24.114 88.9111 24.522C88.2538 24.9073 87.7438 25.4627 87.3811 26.188C87.0411 26.8907 86.8711 27.7293 86.8711 28.704C86.8711 29.7013 87.0525 30.574 87.4151 31.322C87.8005 32.0473 88.3445 32.614 89.0471 33.022C89.7498 33.4073 90.5658 33.6 91.4951 33.6C92.3338 33.6 93.0931 33.464 93.7731 33.192C94.4531 32.8973 95.0425 32.4667 95.5411 31.9L98.1591 34.518C97.3658 35.4473 96.3911 36.15 95.2351 36.626C94.1018 37.102 92.8665 37.34 91.5291 37.34ZM111.906 37L107.588 30.336L106.67 29.656L100.278 20.578H105.548L109.526 26.596L110.376 27.242L117.142 37H111.906ZM99.938 37L106.636 27.616L109.186 30.642L104.97 37H99.938ZM110.546 29.622L107.928 26.63L111.838 20.578H116.836L110.546 29.622ZM130.995 37.34C129.25 37.34 127.629 37.034 126.133 36.422C124.637 35.7873 123.322 34.9147 122.189 33.804C121.078 32.6707 120.217 31.356 119.605 29.86C119.016 28.364 118.721 26.7547 118.721 25.032C118.721 23.3093 119.016 21.7 119.605 20.204C120.217 18.708 121.078 17.4047 122.189 16.294C123.322 15.1833 124.626 14.3107 126.099 13.676C127.595 13.0413 129.227 12.724 130.995 12.724C132.899 12.724 134.576 13.0413 136.027 13.676C137.478 14.288 138.758 15.138 139.869 16.226L136.741 19.354C136.084 18.6287 135.279 18.062 134.327 17.654C133.375 17.246 132.264 17.042 130.995 17.042C129.884 17.042 128.864 17.2347 127.935 17.62C127.028 17.9827 126.235 18.5267 125.555 19.252C124.875 19.9547 124.354 20.8047 123.991 21.802C123.628 22.7767 123.447 23.8533 123.447 25.032C123.447 26.2333 123.628 27.3213 123.991 28.296C124.354 29.2707 124.875 30.1207 125.555 30.846C126.235 31.5487 127.028 32.0927 127.935 32.478C128.864 32.8633 129.884 33.056 130.995 33.056C132.332 33.056 133.477 32.852 134.429 32.444C135.404 32.036 136.22 31.458 136.877 30.71L140.005 33.838C138.894 34.9487 137.602 35.81 136.129 36.422C134.656 37.034 132.944 37.34 130.995 37.34ZM149.18 37.34C147.684 37.34 146.335 36.966 145.134 36.218C143.933 35.47 142.992 34.45 142.312 33.158C141.632 31.866 141.292 30.4153 141.292 28.806C141.292 27.174 141.632 25.712 142.312 24.42C142.992 23.128 143.933 22.108 145.134 21.36C146.335 20.612 147.684 20.238 149.18 20.238C150.359 20.238 151.413 20.476 152.342 20.952C153.271 21.428 154.008 22.0967 154.552 22.958C155.119 23.7967 155.425 24.7487 155.47 25.814V31.73C155.425 32.818 155.119 33.7813 154.552 34.62C154.008 35.4587 153.271 36.1273 152.342 36.626C151.413 37.102 150.359 37.34 149.18 37.34ZM149.996 33.226C151.243 33.226 152.251 32.818 153.022 32.002C153.793 31.1633 154.178 30.0867 154.178 28.772C154.178 27.9107 153.997 27.1513 153.634 26.494C153.294 25.814 152.807 25.2927 152.172 24.93C151.56 24.5447 150.835 24.352 149.996 24.352C149.18 24.352 148.455 24.5447 147.82 24.93C147.208 25.2927 146.721 25.814 146.358 26.494C146.018 27.1513 145.848 27.9107 145.848 28.772C145.848 29.656 146.018 30.438 146.358 31.118C146.721 31.7753 147.208 32.2967 147.82 32.682C148.455 33.0447 149.18 33.226 149.996 33.226ZM153.94 37V32.58L154.654 28.568L153.94 24.624V20.578H158.36V37H153.94ZM162.3 37V20.578H166.754V37H162.3ZM166.754 27.922L165.02 26.766C165.224 24.7487 165.813 23.162 166.788 22.006C167.763 20.8273 169.168 20.238 171.004 20.238C171.797 20.238 172.511 20.374 173.146 20.646C173.781 20.8953 174.359 21.3147 174.88 21.904L172.092 25.1C171.843 24.828 171.537 24.624 171.174 24.488C170.834 24.352 170.437 24.284 169.984 24.284C169.032 24.284 168.25 24.59 167.638 25.202C167.049 25.7913 166.754 26.698 166.754 27.922ZM183.834 37.34C182.111 37.34 180.581 36.9773 179.244 36.252C177.906 35.504 176.841 34.484 176.048 33.192C175.277 31.9 174.892 30.4267 174.892 28.772C174.892 27.14 175.266 25.6893 176.014 24.42C176.784 23.128 177.827 22.108 179.142 21.36C180.456 20.5893 181.918 20.204 183.528 20.204C185.114 20.204 186.508 20.5667 187.71 21.292C188.934 21.9947 189.886 22.9693 190.566 24.216C191.268 25.44 191.62 26.834 191.62 28.398C191.62 28.6927 191.597 28.9987 191.552 29.316C191.529 29.6107 191.472 29.9507 191.382 30.336L177.578 30.37V27.038L189.308 27.004L187.506 28.398C187.46 27.4233 187.279 26.6073 186.962 25.95C186.667 25.2927 186.225 24.794 185.636 24.454C185.069 24.0913 184.366 23.91 183.528 23.91C182.644 23.91 181.873 24.114 181.216 24.522C180.558 24.9073 180.048 25.4627 179.686 26.188C179.346 26.8907 179.176 27.7293 179.176 28.704C179.176 29.7013 179.357 30.574 179.72 31.322C180.105 32.0473 180.649 32.614 181.352 33.022C182.054 33.4073 182.87 33.6 183.8 33.6C184.638 33.6 185.398 33.464 186.078 33.192C186.758 32.8973 187.347 32.4667 187.846 31.9L190.464 34.518C189.67 35.4473 188.696 36.15 187.54 36.626C186.406 37.102 185.171 37.34 183.834 37.34Z" fill="#5F6FFF"/>
</svg>
